Genre: Comedy | Thriller
 Language: English
 IMDb: http://www.imdb.com/title/tt1540133/
 Source: IMAGINE Thanks!

-

Format : AVI
 Format/Info : Audio Video Interleave
 File size : 813 MiB
 Duration : 1h 36mn
 Overall bit rate : 1 177 Kbps
 
Video
 ID : 0
 Format : MPEG-4 Visual
 Format profile : Advanced Simple@L5
 Format settings, BVOP : Yes
 Format settings, QPel : No
 Format settings, GMC : No warppoints
 Format settings, Matrix : Default (H.263)
 Codec ID : XVID
 Codec ID/Hint : XviD
 Duration : 1h 36mn
 Bit rate : 943 Kbps
 Width : 640 pixels
 Height : 344 pixels
 Display aspect ratio : 1.860
 Frame rate : 25.000 fps
 Color space : YUV
 Chroma subsampling : 4:2:0
 Bit depth : 8 bits
 Scan type : Progressive
 Bits/(Pixel*Frame) : 0.171
 Stream size : 652 MiB (80%)
 Writing library : XviD 1.2.1 (UTC 2008-12-04)
 
-

Audio
 ID : 1
 Format : AC-3
 Format/Info : Audio Coding 3
 Mode extension : CM (complete main)
 Codec ID : 2000
 Duration : 1h 36mn
 Bit rate mode : Constant
 Bit rate : 224 Kbps
 Channel(s) : 2 channels
 Channel positions : Front: L R
 Sampling rate : 48.0 KHz
 Bit depth : 16 bits
 Stream size : 155 MiB (19%)
 Alignment : Aligned on interleaves
 Interleave, duration : 40 ms (1.00 video frame)
 Interleave, preload duration : 512 ms
 
-


Plot:
 An unorthodox Irish policeman with a confrontational personality is teamed up with an uptight FBI agent to investigate an international drug-smuggling ring
 
